PathFileType	4	(x/y/z)	S05_M20_T11
DataRate	CameraRate	NumFrames	NumMarkers	Units	OrigDataRate	OrigDataStartFrame	OrigNumFrames
240	240	8	50	mm	240	256	510
Frame#	Time	Sternum			R.Acromium			L.Acromium			Top.Head			R.ASIS			L.ASIS			R.PSIS			L.PSIS			R.Great.Tro			L.Great.Tro			R.Iliac.Crest			L.Iliac.Crest			V.Sacral			R.Thigh.Upper.Post			R.Thigh.Lower.Ant			R.Thigh.Lower.Post			R.Thigh.Upper.Ant			R.Knee.Lat			R.Knee.Med			R.Shank.Upper.Post			R.Shank.Lower.Ant			R.Shank.Lower.Post			R.Shank.Upper.Ant			R.Ankle.Lat			R.Ankle.Med			R.Heel.Upper			R.Heel.Med			R.Heel.Lat			R.Toe.Lat			R.Toe.Med			R.Toe.Tip			L.Thigh.Upper.Post			L.Thigh.Lower.Ant			L.Thigh.Lower.Post			L.Thigh.Upper.Ant			L.Knee.Lat			L.Shank.Upper.Post			L.Shank.Lower.Ant			L.Shank.Lower.Post			L.Shank.Upper.Ant			L.Ankle.Lat			L.Ankle.Med			L.Heel.Upper			L.Heel.Med			L.Heel.Lat			L.Toe.Lat			L.Toe.Med			L.Toe.Tip			Cervical.Spine			Back			
		X1	Y1	Z1	X2	Y2	Z2	X3	Y3	Z3	X4	Y4	Z4	X5	Y5	Z5	X6	Y6	Z6	X7	Y7	Z7	X8	Y8	Z8	X9	Y9	Z9	X10	Y10	Z10	X11	Y11	Z11	X12	Y12	Z12	X13	Y13	Z13	X14	Y14	Z14	X15	Y15	Z15	X16	Y16	Z16	X17	Y17	Z17	X18	Y18	Z18	X19	Y19	Z19	X20	Y20	Z20	X21	Y21	Z21	X22	Y22	Z22	X23	Y23	Z23	X24	Y24	Z24	X25	Y25	Z25	X26	Y26	Z26	X27	Y27	Z27	X28	Y28	Z28	X29	Y29	Z29	X30	Y30	Z30	X31	Y31	Z31	X32	Y32	Z32	X33	Y33	Z33	X34	Y34	Z34	X35	Y35	Z35	X36	Y36	Z36	X37	Y37	Z37	X38	Y38	Z38	X39	Y39	Z39	X40	Y40	Z40	X41	Y41	Z41	X42	Y42	Z42	X43	Y43	Z43	X44	Y44	Z44	X45	Y45	Z45	X46	Y46	Z46	X47	Y47	Z47	X48	Y48	Z48	X49	Y49	Z49	X50	Y50	Z50	

256	1.0625	525.56	1268.9	372.06	433	1525.2	535.38	430.36	1547.4	203.43	431.46	1831.6	378.71	457.21	1016	496.64	469.53	1016.3	247.39	259.91	1030.4	399.1	265.44	1028.2	306.44	377.19	933.79	555.49	401.6	930.69	159.13	365.69	1099.3	530.04	380.54	1091.4	194.33	249.8	995.17	365.88	452.69	704.61	535.11	502.15	639.31	473.53	440.92	618.65	507.36	509.1	724.91	500.88	436.68	527.68	487.48	434.25	517.21	355.36	340.46	290.82	474.11	398.72	221.08	464.2	333.73	216.01	452.95	406.17	296.91	482.25	364.21	123.75	446.95	384.37	151.03	359.17	297.02	76.53	385.04	306.04	43.162	358.17	303.19	49.578	423.6	466.7	39.437	481.64	505.41	39.101	362.61	567.2	57.606	408.85	500.25	711.1	165.15	600.31	674.92	193.7	545.6	628.72	180.68	562.75	756.79	179.58	574.47	553.29	190.25	426.05	413.76	204.36	455.29	330.49	202.28	390.64	352.13	222.5	486.95	392.76	189.43	346.71	226.26	229.76	391.25	216.6	311.19	276.23	205.32	292.5	278.76	177.04	324.09	262.57	180.92	264.43	409.52	91.741	187.5	450.52	89.366	300.18	503.95	71.29	238.57	378.58	1572	377.06	262.13	1295.8	365.58
257	1.0667	530.63	1269.3	372.36	437.89	1525.8	535.33	435.38	1547.7	203.36	436.59	1832	378.11	462.09	1016.2	497.14	475.02	1016.9	247.89	265.08	1030.8	399.03	270.79	1028.6	306.38	381.61	934.05	555.57	407.57	931.47	159.36	370.56	1099.7	530.26	385.92	1091.9	194.59	255.02	995.53	365.77	455.42	704.48	535.11	504.56	638.78	473.7	443.07	618.62	507.33	512.16	724.3	501.12	438.08	527.6	487.44	435.78	517.13	355.24	341.08	291.04	473.97	399.11	221.15	464.09	334.16	216.28	452.81	406.79	296.96	482.17	364.41	123.84	446.85	384.55	151.11	359.03	297.06	76.643	385	306.06	43.233	358.15	303.17	49.724	423.61	466.74	39.441	481.6	505.45	39.004	362.55	567.3	57.423	408.83	507.49	712.43	165.32	607.6	676.84	194.45	553.23	630.32	181.03	569.63	758.49	180.24	582.47	554.89	190.79	437.02	411.57	204.8	468.39	329.05	202.45	403.24	348.99	222.91	498.39	392.15	189.66	362.51	221.94	229.84	407.71	213.18	311.12	292.8	198.84	292.69	296.26	170.52	324.17	279.79	174.11	264.64	428.98	89.325	187.01	470.43	87.802	299.57	524.11	71.4	237.73	383.64	1572.4	376.97	267.23	1296.2	365.71
258	1.0708	535.7	1269.8	372.66	442.79	1526.4	535.26	440.42	1547.8	203.29	441.71	1832.4	377.5	466.98	1016.4	497.64	480.51	1017.3	248.37	270.25	1031.1	398.95	276.14	1028.9	306.31	386.03	934.29	555.64	413.5	932.2	159.58	375.44	1099.9	530.46	391.28	1092.3	194.84	260.24	995.85	365.66	458.15	704.35	535.09	506.98	638.24	473.85	445.23	618.59	507.29	515.22	723.68	501.34	439.49	527.52	487.4	437.3	517.05	355.12	341.72	291.27	473.85	399.49	221.22	463.97	334.61	216.54	452.69	407.42	297.02	482.09	364.61	123.93	446.75	384.72	151.18	358.9	297.11	76.751	384.96	306.09	43.299	358.14	303.16	49.869	423.61	466.78	39.444	481.56	505.48	38.908	362.49	567.39	57.245	408.81	514.59	713.66	165.51	614.74	678.62	195.18	560.71	631.8	181.38	576.39	760.07	180.88	590.32	556.4	191.31	447.97	409.3	205.24	481.47	327.61	202.59	415.86	345.82	223.33	509.77	391.51	189.86	378.43	217.64	229.91	424.31	209.81	311.02	309.59	192.37	292.88	313.98	164.05	324.24	297.21	167.33	264.85	448.52	87.034	186.48	490.42	86.389	298.92	544.3	71.675	236.84	388.7	1572.8	376.86	272.34	1296.4	365.82
259	1.075	540.77	1270.2	372.96	447.68	1526.9	535.19	445.49	1548	203.2	446.83	1832.7	376.89	471.89	1016.5	498.12	485.99	1017.8	248.84	275.42	1031.4	398.86	281.5	1029.1	306.25	390.46	934.5	555.69	419.4	932.88	159.81	380.33	1100.1	530.67	396.63	1092.7	195.09	265.46	996.14	365.54	460.9	704.21	535.07	509.41	637.71	474	447.42	618.55	507.25	518.29	723.06	501.56	440.93	527.43	487.35	438.82	516.96	354.99	342.37	291.49	473.74	399.88	221.29	463.87	335.08	216.81	452.59	408.06	297.07	482.01	364.82	124.02	446.66	384.91	151.24	358.77	297.17	76.854	384.92	306.13	43.36	358.13	303.15	50.015	423.61	466.82	39.446	481.51	505.5	38.811	362.44	567.49	57.069	408.79	521.55	714.78	165.71	621.73	680.27	195.88	568.04	633.17	181.75	583.04	761.52	181.52	598.01	557.8	191.81	458.91	406.98	205.67	494.53	326.16	202.7	428.52	342.63	223.74	521.1	390.83	190.05	394.47	213.38	229.96	441.05	206.51	310.92	326.57	185.95	293.05	331.92	157.65	324.3	314.83	160.61	265.04	468.12	84.877	185.93	510.48	85.138	298.22	564.51	72.124	235.9	393.77	1573.1	376.75	277.45	1296.7	365.91
260	1.0792	545.84	1270.5	373.25	452.57	1527.3	535.11	450.58	1548.1	203.11	451.96	1832.9	376.28	476.8	1016.6	498.58	491.47	1018.2	249.3	280.6	1031.6	398.77	286.86	1029.4	306.17	394.9	934.68	555.74	425.27	933.5	160.03	385.23	1100.3	530.86	401.98	1093	195.33	270.68	996.4	365.42	463.65	704.07	535.04	511.86	637.17	474.15	449.63	618.51	507.2	521.36	722.43	501.76	442.38	527.34	487.31	440.34	516.87	354.86	343.04	291.72	473.64	400.28	221.36	463.76	335.56	217.07	452.49	408.72	297.12	481.94	365.03	124.12	446.57	385.1	151.31	358.65	297.23	76.952	384.88	306.19	43.417	358.14	303.15	50.161	423.6	466.87	39.446	481.46	505.52	38.715	362.39	567.58	56.896	408.78	528.38	715.8	165.92	628.59	681.79	196.56	575.22	634.42	182.12	589.56	762.85	182.13	605.55	559.09	192.3	469.84	404.61	206.09	507.57	324.73	202.79	441.21	339.41	224.16	532.39	390.1	190.21	410.61	209.16	230.01	457.9	203.3	310.8	343.75	179.6	293.22	350.06	151.35	324.36	332.64	153.97	265.23	487.79	82.868	185.34	530.6	84.061	297.49	584.71	72.752	234.91	398.86	1573.4	376.63	282.55	1296.9	365.98
261	1.0833	550.91	1270.7	373.54	457.46	1527.7	535.03	455.69	1548.1	203.01	457.09	1833.1	375.66	481.74	1016.7	499.03	496.94	1018.5	249.74	285.78	1031.8	398.68	292.22	1029.6	306.1	399.35	934.83	555.78	431.1	934.06	160.24	390.15	1100.5	531.05	407.32	1093.3	195.55	275.9	996.62	365.29	466.43	703.92	535.01	514.31	636.63	474.29	451.86	618.46	507.16	524.45	721.79	501.96	443.85	527.24	487.27	441.86	516.78	354.73	343.72	291.94	473.56	400.67	221.44	463.67	336.06	217.33	452.41	409.39	297.17	481.87	365.25	124.21	446.48	385.31	151.37	358.54	297.31	77.044	384.84	306.26	43.469	358.15	303.14	50.308	423.58	466.91	39.444	481.41	505.52	38.617	362.35	567.67	56.726	408.77	535.07	716.71	166.14	635.31	683.16	197.21	582.24	635.55	182.5	595.96	764.04	182.73	612.94	560.27	192.78	480.77	402.18	206.51	520.59	323.3	202.86	453.94	336.18	224.56	543.63	389.35	190.35	426.87	205	230.04	474.85	200.18	310.67	361.12	173.33	293.37	368.41	145.17	324.41	350.65	147.43	265.4	507.5	81.017	184.72	550.77	83.168	296.73	604.9	73.568	233.89	403.95	1573.6	376.5	287.66	1297	366.04
262	1.0875	555.98	1271	373.82	462.36	1528.1	534.94	460.83	1548.1	202.9	462.23	1833.3	375.03	486.68	1016.7	499.46	502.4	1018.8	250.18	290.97	1032	398.58	297.58	1029.8	306.02	403.8	934.95	555.81	436.89	934.56	160.46	395.08	1100.6	531.23	412.67	1093.5	195.77	281.12	996.81	365.16	469.22	703.77	534.97	516.79	636.09	474.44	454.11	618.41	507.13	527.54	721.15	502.16	445.34	527.14	487.24	443.4	516.69	354.6	344.42	292.17	473.48	401.08	221.51	463.58	336.57	217.59	452.33	410.07	297.22	481.81	365.46	124.31	446.4	385.53	151.43	358.43	297.39	77.131	384.8	306.34	43.517	358.16	303.14	50.454	423.56	466.95	39.441	481.36	505.52	38.519	362.32	567.75	56.557	408.76	541.63	717.51	166.37	641.9	684.38	197.84	589.12	636.54	182.88	602.25	765.1	183.31	620.18	561.33	193.25	491.69	399.7	206.92	533.58	321.88	202.91	466.69	332.95	224.96	554.83	388.56	190.47	443.23	200.92	230.06	491.89	197.17	310.52	378.69	167.15	293.51	386.96	139.12	324.45	368.84	141	265.55	527.24	79.337	184.08	570.96	82.47	295.92	625.06	74.578	232.82	409.04	1573.7	376.35	292.78	1297.2	366.07
263	1.0917	561.05	1271.1	374.1	467.25	1528.4	534.84	466	1548	202.78	467.37	1833.4	374.41	491.64	1016.7	499.88	507.86	1019	250.59	296.16	1032.2	398.47	302.95	1029.9	305.94	408.27	935.05	555.84	442.65	935	160.66	400.02	1100.7	531.4	418.02	1093.7	195.98	286.34	996.97	365.03	472.02	703.61	534.94	519.28	635.54	474.6	456.38	618.35	507.1	530.64	720.5	502.37	446.85	527.03	487.22	444.96	516.6	354.48	345.13	292.4	473.41	401.5	221.59	463.51	337.1	217.86	452.27	410.77	297.26	481.76	365.68	124.41	446.32	385.77	151.49	358.33	297.49	77.212	384.76	306.43	43.561	358.18	303.15	50.602	423.53	466.99	39.436	481.32	505.51	38.42	362.3	567.84	56.39	408.76	548.06	718.19	166.61	648.35	685.46	198.44	595.85	637.41	183.26	608.42	766.03	183.87	627.29	562.27	193.7	502.61	397.19	207.32	546.55	320.49	202.94	479.47	329.73	225.35	565.97	387.74	190.58	459.68	196.93	230.07	508.99	194.29	310.36	396.44	161.1	293.64	405.7	133.23	324.48	387.21	134.71	265.69	547.01	77.838	183.41	591.17	81.977	295.09	645.17	75.789	231.72	414.15	1573.8	376.2	297.89	1297.2	366.09
